<svg width="450" height="200" viewBox="0 0 450 200" fill="none" xmlns="http://www.w3.org/2000/svg">
<g clip-path="url(#clip0_9_1387)">
<path d="M233.657 0H237.975C247.868 0.545455 257.527 5.04762 264.065 12.5368C268.868 17.7143 271.097 24.5455 274.391 30.658C285.195 53.1429 296.276 75.4978 307.001 98.0173C309.49 95.974 312.013 93.974 314.536 91.974C308.571 80.5368 302.961 68.9264 297.039 57.4719C290.969 45.3506 292.721 29.9913 301.053 19.342C306.984 11.5931 316.209 6.46753 325.929 5.44589C338.276 4.00866 351.256 9.4026 358.764 19.3333C360.984 22.1905 362.649 25.4199 364.218 28.6667C367.001 34.3983 370.062 39.9827 372.862 45.7056C378.429 41.2035 384.065 36.7879 389.64 32.303C402.03 21.3853 421.912 20.4416 435.099 30.4935C444.091 36.9524 449.813 47.7229 450.013 58.7965C450.342 68.0433 446.978 77.3939 440.709 84.2165C437.813 87.4113 434.302 89.9394 430.955 92.632C422.848 99.0996 414.698 105.532 406.591 112.009C412.01 122.823 417.377 133.662 423.021 144.372C426.533 151.074 428.25 158.797 427.261 166.346C425.969 178.545 417.906 189.68 406.842 194.944C398.206 199.16 387.871 199.697 378.828 196.45C370.14 193.446 362.779 186.961 358.573 178.814C355.079 172.026 351.741 165.16 348.29 158.346C344.831 160.909 341.683 163.896 338.076 166.26C335.302 168.061 331.391 167.169 329.328 164.701C326.926 161.879 327.325 157.212 330.325 154.961C335.579 150.641 340.946 146.45 346.287 142.242C349.617 139.359 355.192 140.771 356.874 144.788C361.591 154.199 366.429 163.55 371.215 172.926C374.865 179.836 382.391 184.485 390.212 184.684C398.388 185.091 406.495 180.528 410.562 173.472C414.125 167.429 414.689 159.671 411.819 153.247C405.836 140.892 399.386 128.788 393.221 116.528C392.111 114.182 390.472 111.775 390.923 109.056C391.123 106.823 392.839 105.212 394.478 103.887C405.464 95.1948 416.414 86.4589 427.4 77.7662C431.709 74.4069 434.77 69.4632 435.776 64.0952C437.753 54.5455 432.672 44.1472 423.914 39.8442C416.432 35.8788 406.73 36.632 400.01 41.8182C391.591 48.4242 383.267 55.1602 374.848 61.7662C371.649 64.5195 366.282 63.3853 364.391 59.6364C359.31 49.9221 354.672 39.9654 349.443 30.3117C345.065 22.4848 335.631 17.9394 326.761 19.3074C318.004 20.4069 310.305 27.1688 308.111 35.7056C306.542 41.2035 307.261 47.2294 309.914 52.2857C316.391 65.2035 323.163 77.9827 329.493 90.9784C331.027 93.8095 330.021 97.4199 327.507 99.3333C322.834 103.247 317.943 106.918 313.192 110.753C316.747 118.268 321.203 125.489 323.224 133.61C325.894 145.385 322.357 158.398 313.929 167.091C307.019 174.381 297.047 178.701 286.972 178.597C275.302 178.693 263.753 172.797 257.033 163.264C253.504 158.407 251.458 152.719 248.744 147.42C244.478 138.814 240.342 130.139 236.12 121.515C230.18 133.74 224.241 145.974 218.302 158.208C212.449 170.121 199.747 178.26 186.455 178.58C173.787 179.169 161.085 172.615 154.244 161.948C147.021 151.186 146.154 136.571 152.094 125.048C159.351 110.13 166.582 95.2121 173.839 80.2944C171.013 65.3766 168.386 50.4242 165.481 35.5325C163.253 24.8831 152.189 17.1515 141.403 18.6753C134.267 19.316 128.466 24.1472 124.201 29.5498C115.86 40.3377 107.51 51.1169 99.1688 61.9048C96.9231 65.1688 92.1283 66.0346 88.8769 63.7576C77.848 56.8658 66.8624 49.9048 55.8682 42.961C52.2873 40.5281 48.3595 38.5801 44.1197 37.6364C36.0474 35.5584 26.9954 38.6667 21.8278 45.1688C17.7873 50.1039 16.1226 56.8312 17.3104 63.0909C23.1804 97.2035 29.0069 131.325 34.8682 165.437C35.7266 171.368 39.1168 176.892 44.0763 180.286C50.952 185.238 60.7411 185.524 67.9809 181.186C73.4174 177.974 77.3885 172.346 78.4463 166.113C79.374 161.532 78.1948 156.918 77.4405 152.407C75.637 141.706 73.7468 131.013 71.9347 120.312C70.9029 116.017 74.3798 111.29 78.8538 111.221C82.6688 111.074 85.452 114.069 88.5214 115.861C95.2411 120.13 104.284 120.061 111.073 115.983C115.14 113.827 117.637 109.844 120.542 106.45C123.143 103.212 128.527 102.892 131.388 105.957C133.175 107.602 133.556 110.095 133.972 112.364C135.845 123.732 137.848 135.065 139.755 146.424C140.38 150.303 141.706 154.165 144.282 157.195C146.258 159.481 148.495 162.173 147.706 165.437C146.952 170.762 139.842 173.576 135.732 170.035C130.071 164.727 126.472 157.385 125.163 149.775C123.828 142.286 122.64 134.771 121.296 127.29C112.019 133.68 100.027 135.645 89.189 132.554C90.3509 138.805 91.3567 145.091 92.4491 151.359C93.4549 156.58 94.2613 161.939 93.4289 167.247C91.8335 179.792 83.1977 191.108 71.5879 196.104C60.7324 200.952 47.5358 200.052 37.4347 193.784C28.5041 188.433 22.0965 179.108 20.2844 168.874C14.3017 134.19 8.38845 99.4978 2.42313 64.8139C0.637001 54.0952 3.99249 42.71 11.215 34.5974C16.9809 28.0433 25.1139 23.5325 33.8017 22.4242C44.0243 20.9177 54.4376 24.2338 62.978 29.7576C72.4029 35.7316 81.8364 41.697 91.3046 47.6104C98.3191 38.5455 105.342 29.4892 112.348 20.4069C116.414 15.2554 121.305 10.5801 127.218 7.60173C134.137 4 142.235 2.81385 149.926 4.05195C162.767 6.02597 174.186 15.316 178.703 27.4892C181.712 37.2381 182.657 47.4978 184.851 57.4545C191.31 44.7186 197.232 31.7143 203.701 18.9784C209.553 8.04329 221.336 0.857143 233.657 0ZM233.588 15.0909C228.966 15.6104 224.492 17.5844 221.085 20.7706C216.897 24.5108 214.981 29.9394 212.553 34.8398C197.631 65.5411 182.718 96.2338 167.831 126.952C166.235 130.139 164.44 133.29 163.677 136.805C162.247 142.771 163.617 149.281 167.12 154.286C171.203 160.216 178.4 163.887 185.605 163.654C193.149 163.593 200.44 159.29 204.221 152.788C212.857 135.437 221.137 117.879 229.73 100.502C231.481 97.4459 235.625 95.9827 238.868 97.4545C242.718 98.8139 243.758 103.16 245.432 106.424C252.793 121.55 260.137 136.693 267.481 151.827C272.189 161.325 284.319 166.156 294.282 162.45C302.865 159.584 309.16 151.03 309.117 141.957C309.446 136.104 306.351 130.952 303.975 125.853C288.94 94.9351 273.923 64.0087 258.914 33.0823C256.938 29.3853 255.507 25.3074 252.628 22.1732C247.877 16.9957 240.585 14.1991 233.588 15.0909Z" fill="white"/>
</g>
<defs>
<clipPath id="clip0_9_1387">
<rect width="450" height="200" fill="white"/>
</clipPath>
</defs>
</svg>
