<svg width="18" height="835" viewBox="0 0 18 835" fill="none" xmlns="http://www.w3.org/2000/svg">
<g clip-path="url(#clip0_936_747)">
<path d="M-23.75 -50.9989C-19.53 -50.9989 -19.53 -46.9989 -15.32 -46.9989C-11.11 -46.9989 -11.11 -50.9989 -6.89 -50.9989C-2.67 -50.9989 -2.67001 -46.9989 1.53999 -46.9989C5.74999 -46.9989 5.76 -50.9989 9.97 -50.9989C14.18 -50.9989 14.19 -46.9989 18.41 -46.9989C22.63 -46.9989 22.63 -50.9989 26.85 -50.9989C31.07 -50.9989 31.07 -46.9989 35.28 -46.9989C39.49 -46.9989 39.49 -50.9989 43.71 -50.9989C47.5384 -50.9989 47.8937 -47.7068 51.07 -47.0959V834.971C46.84 834.971 46.84 830.971 42.61 830.971C38.38 830.971 38.38 834.971 34.15 834.971C29.92 834.971 29.92 830.971 25.69 830.971C21.46 830.971 21.46 834.971 17.23 834.971C13 834.971 13 830.971 8.77 830.971C4.54 830.971 4.54 834.971 0.309998 834.971C-3.92 834.971 -3.91999 830.971 -8.14999 830.971C-12.38 830.971 -12.38 834.971 -16.61 834.971C-20.84 834.971 -20.84 830.971 -25.07 830.971L-23.75 -50.9989Z" fill="black"/>
</g>
<defs>
<clipPath id="clip0_936_747">
<rect width="18" height="835" fill="white"/>
</clipPath>
</defs>
</svg>
