<svg width="34" height="41" viewBox="0 0 34 41" fill="none" xmlns="http://www.w3.org/2000/svg">
<g clip-path="url(#clip0_287_130)">
<path d="M59.5396 24.9815L60.5381 24.9815L60.5396 23.983L60.6196 -27.987L60.6212 -28.9885L59.6196 -28.9885C57.1122 -28.9885 55.8069 -27.7525 54.7383 -26.7406L54.7109 -26.7147C53.6733 -25.7323 52.8665 -24.9885 51.1696 -24.9885C49.4722 -24.9885 48.6629 -25.7329 47.6225 -26.7155L47.5949 -26.7416C46.524 -27.7532 45.2164 -28.9885 42.7096 -28.9885C40.2013 -28.9885 38.8936 -27.7517 37.8233 -26.7394L37.7975 -26.7151C36.7577 -25.7318 35.9512 -24.9885 34.2596 -24.9885C32.5681 -24.9885 31.7616 -25.7318 30.7217 -26.7151L30.696 -26.7394C29.6256 -27.7518 28.3179 -28.9885 25.8096 -28.9885C23.3013 -28.9885 21.9937 -27.7517 20.9233 -26.7394L20.8976 -26.7151C19.8577 -25.7318 19.0512 -24.9885 17.3596 -24.9885C15.6681 -24.9885 14.8615 -25.7318 13.8217 -26.7151L13.7959 -26.7394C12.7256 -27.7517 11.4179 -28.9885 8.90961 -28.9885C6.40217 -28.9885 5.09686 -27.7525 4.02823 -26.7406L4.00085 -26.7147C2.96324 -25.7323 2.15645 -24.9885 0.459599 -24.9885C-1.22361 -24.9885 -2.05551 -25.7774 -3.14563 -26.8112L-3.14601 -26.8116C-3.68066 -27.3186 -4.31416 -27.9183 -5.11903 -28.3531C-5.95504 -28.8046 -6.94034 -29.0631 -8.18185 -28.9866L-8.18186 -28.9867L-8.19423 -28.9858C-8.37784 -28.9722 -8.71905 -28.8914 -8.95516 -28.5567C-9.17173 -28.2497 -9.14907 -27.9365 -9.12957 -27.8088C-9.09437 -27.5785 -8.98583 -27.4051 -8.958 -27.3607L-8.95553 -27.3568C-8.87165 -27.2221 -8.75553 -27.0818 -8.66076 -26.9717C-8.47213 -26.7527 -8.21019 -26.4746 -7.95446 -26.205C-7.9916 -26.2025 -8.02894 -26.2001 -8.06647 -26.1976L-8.10914 -26.1947C-8.58815 -26.163 -9.09418 -26.1295 -9.48348 -26.0872C-9.67841 -26.066 -9.88411 -26.0386 -10.0548 -25.9989C-10.1318 -25.981 -10.2628 -25.9473 -10.3953 -25.8824C-10.4597 -25.8509 -10.5811 -25.7851 -10.699 -25.6662C-10.8227 -25.5415 -11.0004 -25.295 -11.0004 -24.9385C-11.0004 -24.7248 -10.9365 -24.5506 -10.8587 -24.4185C-10.9365 -24.2864 -11.0004 -24.1122 -11.0004 -23.8985C-11.0004 -23.6848 -10.9365 -23.5106 -10.8587 -23.3785C-10.9365 -23.2464 -11.0004 -23.0722 -11.0004 -22.8585L-11.0004 -22.8139L-10.9964 -22.7695L-7.07696 21.0792C-7.36917 21.1033 -7.70952 21.1255 -8.06523 21.1486L-8.08204 21.1497C-8.56946 21.1814 -9.08576 21.2149 -9.48143 21.2571C-9.67614 21.2779 -9.88009 21.3046 -10.0487 21.3426C-10.1246 21.3597 -10.2532 21.3919 -10.3833 21.4535C-10.4459 21.4831 -10.5671 21.5462 -10.686 21.6618C-10.809 21.7814 -11.0004 22.0312 -11.0004 22.4015C-11.0004 22.6105 -10.9394 22.781 -10.8642 22.9115C-10.9394 23.042 -11.0004 23.2125 -11.0004 23.4215C-11.0004 23.6305 -10.9394 23.801 -10.8642 23.9315C-10.9393 24.0621 -11.0004 24.2333 -11.0004 24.4415C-11.0004 24.6509 -10.9417 24.8201 -10.8651 24.9518C-10.9408 25.0829 -11.0004 25.2524 -11.0004 25.4615C-11.0004 25.5991 -10.9723 25.8437 -10.7956 26.0793C-10.6043 26.3345 -10.3428 26.4422 -10.1392 26.4747C-9.83479 26.5234 -9.59183 26.4192 -9.54201 26.3978L-9.53759 26.3959C-9.48019 26.3716 -9.42431 26.3428 -9.37245 26.3131C-9.03542 26.2714 -8.51291 26.2378 -7.9382 26.201C-7.7828 26.191 -7.62358 26.1808 -7.46318 26.1701C-7.05507 26.1429 -6.64513 26.1124 -6.33232 26.073C-6.18259 26.0542 -6.01219 26.0283 -5.86363 25.9882C-5.79732 25.9704 -5.67108 25.9333 -5.54081 25.8598L-5.53876 25.8586C-5.53247 25.8551 -5.52162 25.849 -5.50722 25.8402C-5.15264 26.1035 -4.81995 26.4152 -4.45095 26.7609C-4.35113 26.8545 -4.24866 26.9505 -4.14238 27.0487C-3.64991 27.5038 -3.0714 28.0003 -2.32273 28.3726C-1.55986 28.7521 -0.665642 28.9815 0.449646 28.9815C2.95796 28.9815 4.26563 27.7447 5.33596 26.7324L5.3617 26.7081C6.40152 25.7248 7.20805 24.9815 8.8996 24.9815C10.5906 24.9815 11.3946 25.7243 12.4317 26.7073L12.4571 26.7314C13.5253 27.7441 14.8306 28.9815 17.3396 28.9815C19.8486 28.9815 21.1539 27.7441 22.222 26.7314L22.2475 26.7073C23.2846 25.7243 24.0886 24.9815 25.7796 24.9815C27.4706 24.9815 28.2746 25.7243 29.3117 26.7073L29.3372 26.7314C30.4053 27.7441 31.7106 28.9815 34.2196 28.9815C36.7286 28.9815 38.0339 27.7441 39.1021 26.7314L39.1275 26.7073C40.1646 25.7243 40.9686 24.9815 42.6596 24.9815C44.3506 24.9815 45.1546 25.7243 46.1917 26.7073L46.2172 26.7314C47.2853 27.7441 48.5906 28.9815 51.0996 28.9815C53.6086 28.9815 54.9139 27.7441 55.9821 26.7314C55.9906 26.7234 55.9991 26.7153 56.0075 26.7073C57.0446 25.7243 57.8486 24.9815 59.5396 24.9815ZM-9.61296 -25.829C-9.6128 -25.829 -9.61049 -25.8284 -9.60633 -25.8272C-9.61101 -25.8284 -9.61312 -25.829 -9.61296 -25.829ZM-6.38087 20.9966C-6.38108 20.9967 -6.38317 20.9973 -6.38734 20.9983C-6.3829 20.997 -6.38062 20.9965 -6.38087 20.9966ZM-9.61988 21.5066C-9.61983 21.5066 -9.61761 21.5071 -9.61343 21.5083C-9.61787 21.5072 -9.61993 21.5066 -9.61988 21.5066Z" fill="white" stroke="#3139FB" stroke-width="2"/>
</g>
<defs>
<clipPath id="clip0_287_130">
<rect width="34" height="41" fill="white"/>
</clipPath>
</defs>
</svg>
